<svg version="1.1" xmlns="http://www.w3.org/2000/svg" xmlns:xlink="http://www.w3.org/1999/xlink" x="0px" y="0px"
     viewBox="0 0 595.28 212.6" style="enable-background:new 0 0 595.28 212.6;" xml:space="preserve">
<style type="text/css">
	.st0{fill:#DC1E7D;}
	.st1{fill:#040102;}
	.st2{fill:#050103;}
	.st3{fill:#060103;}
	.st4{fill:#070104;}
	.st5{fill:#080105;}
	.st6{fill:#090105;}
	.st7{fill:#0A0106;}
	.st8{fill:#0B0106;}
	.st9{fill:#0C0207;}
	.st10{fill:#0D0207;}
	.st11{fill:#0E0208;}
	.st12{fill:#0F0209;}
	.st13{fill:#100209;}
	.st14{fill:#11020A;}
	.st15{fill:#12020A;}
	.st16{fill:#13030B;}
	.st17{fill:#14030B;}
	.st18{fill:#15030C;}
	.st19{fill:#16030D;}
	.st20{fill:#17030D;}
	.st21{fill:#18030E;}
	.st22{fill:#19030E;}
	.st23{fill:#1A040F;}
	.st24{fill:#1B040F;}
	.st25{fill:#1C0410;}
	.st26{fill:#1D0410;}
	.st27{fill:#1E0411;}
	.st28{fill:#1F0412;}
	.st29{fill:#200412;}
	.st30{fill:#210413;}
	.st31{fill:#220513;}
	.st32{fill:#230514;}
	.st33{fill:#240514;}
	.st34{fill:#250515;}
	.st35{fill:#260516;}
	.st36{fill:#270516;}
	.st37{fill:#280517;}
	.st38{fill:#290617;}
	.st39{fill:#2A0618;}
	.st40{fill:#2B0618;}
	.st41{fill:#2C0619;}
	.st42{fill:#2D061A;}
	.st43{fill:#2E061A;}
	.st44{fill:#2F061B;}
	.st45{fill:#30071B;}
	.st46{fill:#31071C;}
	.st47{fill:#32071C;}
	.st48{fill:#33071D;}
	.st49{fill:#34071E;}
	.st50{fill:#35071E;}
	.st51{fill:#36071F;}
	.st52{fill:#37071F;}
	.st53{fill:#380820;}
	.st54{fill:#390820;}
	.st55{fill:#3A0821;}
	.st56{fill:#3B0822;}
	.st57{fill:#3C0822;}
	.st58{fill:#3D0823;}
	.st59{fill:#3E0823;}
	.st60{fill:#3F0924;}
	.st61{fill:#400924;}
	.st62{fill:#410925;}
	.st63{fill:#420926;}
	.st64{fill:#430926;}
	.st65{fill:#440927;}
	.st66{fill:#450927;}
	.st67{fill:#460A28;}
	.st68{fill:#470A28;}
	.st69{fill:#480A29;}
	.st70{fill:#490A29;}
	.st71{fill:#4A0A2A;}
	.st72{fill:#4B0A2B;}
	.st73{fill:#4C0A2B;}
	.st74{fill:#4D0A2C;}
	.st75{fill:#4E0B2C;}
	.st76{fill:#4F0B2D;}
	.st77{fill:#500B2D;}
	.st78{fill:#510B2E;}
	.st79{fill:#520B2F;}
	.st80{fill:#530B2F;}
	.st81{fill:#540B30;}
	.st82{fill:#550C30;}
	.st83{fill:#560C31;}
	.st84{fill:#570C31;}
	.st85{fill:#580C32;}
	.st86{fill:#590C33;}
	.st87{fill:#5A0C33;}
	.st88{fill:#5B0C34;}
	.st89{fill:#5C0D34;}
	.st90{fill:#5D0D35;}
	.st91{fill:#5E0D35;}
	.st92{fill:#5F0D36;}
	.st93{fill:#600D37;}
	.st94{fill:#610D37;}
	.st95{fill:#620D38;}
	.st96{fill:#630D38;}
	.st97{fill:#640E39;}
	.st98{fill:#650E39;}
	.st99{fill:#660E3A;}
	.st100{fill:#670E3B;}
	.st101{fill:#680E3B;}
	.st102{fill:#690E3C;}
	.st103{fill:#6A0E3C;}
	.st104{fill:#6B0F3D;}
	.st105{fill:#6C0F3D;}
	.st106{fill:#6D0F3E;}
	.st107{fill:#6E0F3F;}
	.st108{fill:#6F0F3F;}
	.st109{fill:#700F40;}
	.st110{fill:#710F40;}
	.st111{fill:#721041;}
	.st112{fill:#731041;}
	.st113{fill:#741042;}
	.st114{fill:#751042;}
	.st115{fill:#761043;}
	.st116{fill:#771044;}
	.st117{fill:#781044;}
	.st118{fill:#791045;}
	.st119{fill:#7A1145;}
	.st120{fill:#7B1146;}
	.st121{fill:#7C1146;}
	.st122{fill:#7D1147;}
	.st123{fill:#7E1148;}
	.st124{fill:#7F1148;}
	.st125{fill:#801149;}
	.st126{fill:#811249;}
	.st127{fill:#82124A;}
	.st128{fill:#83124A;}
	.st129{fill:#84124B;}
	.st130{fill:#85124C;}
	.st131{fill:#86124C;}
	.st132{fill:#87124D;}
	.st133{fill:#88134D;}
	.st134{fill:#89134E;}
	.st135{fill:#8A134E;}
	.st136{fill:#8B134F;}
	.st137{fill:#8C1350;}
	.st138{fill:#8D1350;}
	.st139{fill:#8E1351;}
	.st140{fill:#8F1351;}
	.st141{fill:#901452;}
	.st142{fill:#911452;}
	.st143{fill:#921453;}
	.st144{fill:#931454;}
	.st145{fill:#941454;}
	.st146{fill:#951455;}
	.st147{fill:#961455;}
	.st148{fill:#971556;}
	.st149{fill:#981556;}
	.st150{fill:#991557;}
	.st151{fill:#9A1558;}
	.st152{fill:#9B1558;}
	.st153{fill:#9C1559;}
	.st154{fill:#9D1559;}
	.st155{fill:#9E165A;}
	.st156{fill:#9F165A;}
	.st157{fill:#A0165B;}
	.st158{fill:#A1165B;}
	.st159{fill:#A2165C;}
	.st160{fill:#A3165D;}
	.st161{fill:#A4165D;}
	.st162{fill:#A5165E;}
	.st163{fill:#A6175E;}
	.st164{fill:#A7175F;}
	.st165{fill:#A8175F;}
	.st166{fill:#A91760;}
	.st167{fill:#AA1761;}
	.st168{fill:#AB1761;}
	.st169{fill:#AC1762;}
	.st170{fill:#AD1862;}
	.st171{fill:#AE1863;}
	.st172{fill:#AF1863;}
	.st173{fill:#B01864;}
	.st174{fill:#B11865;}
	.st175{fill:#B21865;}
	.st176{fill:#B31866;}
	.st177{fill:#B41966;}
	.st178{fill:#B51967;}
	.st179{fill:#B61967;}
	.st180{fill:#B71968;}
	.st181{fill:#B81969;}
	.st182{fill:#B91969;}
	.st183{fill:#BA196A;}
	.st184{fill:#BB196A;}
	.st185{fill:#BC1A6B;}
	.st186{fill:#BD1A6B;}
	.st187{fill:#BE1A6C;}
	.st188{fill:#BF1A6D;}
	.st189{fill:#C01A6D;}
	.st190{fill:#C11A6E;}
	.st191{fill:#C21A6E;}
	.st192{fill:#C31B6F;}
	.st193{fill:#C41B6F;}
	.st194{fill:#C51B70;}
	.st195{fill:#C61B71;}
	.st196{fill:#C71B71;}
	.st197{fill:#C81B72;}
	.st198{fill:#C91B72;}
	.st199{fill:#CA1C73;}
	.st200{fill:#CB1C73;}
	.st201{fill:#CC1C74;}
	.st202{fill:#CD1C74;}
	.st203{fill:#CE1C75;}
	.st204{fill:#CF1C76;}
	.st205{fill:#D01C76;}
	.st206{fill:#D11C77;}
	.st207{fill:#D21D77;}
	.st208{fill:#D31D78;}
	.st209{fill:#D41D78;}
	.st210{fill:#D51D79;}
	.st211{fill:#D61D7A;}
	.st212{fill:#D71D7A;}
	.st213{fill:#D81D7B;}
	.st214{fill:#D91E7B;}
	.st215{fill:#DA1E7C;}
	.st216{fill:#DB1E7C;}
</style>
    <g id="Ebene_1">
	<g id="Ebene_1_1_">
	</g>
        <polygon points="146.49,30.36 129.66,101.91 112.52,30.36 85.01,30.36 67.58,101.91 50.59,30.36 28.35,30.36 53,130.47
		81.71,130.47 98.69,54.41 115.53,130.47 144.24,130.47 168.74,30.36 	"/>
        <path d="M248.44,30.36v70.95c0,15.18-9.47,30.67-37.73,30.67s-37.73-15.48-37.73-30.67V30.36h22.55V99.2
		c0,8.12,3.91,12.78,15.18,12.78s15.18-4.66,15.18-12.78V30.36H248.44z"/>
        <polygon points="257.72,30.36 257.72,130.47 320.71,130.47 320.71,110.48 280.27,110.48 280.27,88.68 317.55,88.68 317.55,68.69
		280.27,68.69 280.27,50.35 320.71,50.35 320.71,30.36 	"/>
        <polygon class="st0" points="426.51,30.36 409.67,101.91 392.54,30.36 365.03,30.36 347.59,101.91 330.61,30.36 308.36,30.36
		333.01,130.47 361.72,130.47 378.71,54.41 395.54,130.47 424.25,130.47 448.76,30.36 	"/>
        <polygon points="74.01,145.57 67.48,173.1 63.42,173.1 55.47,143.72 57.99,143.72 65.36,171.12 71.93,143.72 76.08,143.72
		82.66,171.12 90.02,143.72 92.54,143.72 84.6,173.1 80.54,173.1 	"/>
        <path d="M98.86,151.62V169c0,1.59,0.84,2.16,2.34,2.16c1.76,0,5.56-1.06,8.25-2.47v-17.08h2.56v21.49h-2.25l-0.18-1.94
		c-2.3,1.1-6.13,2.39-8.74,2.39c-3.35,0-4.54-1.9-4.54-4.86v-17.08L98.86,151.62L98.86,151.62z"/>
        <path d="M120.06,160.84h10.77v-1.94c0-3.62-1.28-5.52-5.29-5.52c-4.02,0-5.47,1.9-5.47,5.52v1.94H120.06z M125.66,171.3
		c2.21,0,4.68-0.44,6.8-1.02l0.44,2.07c-1.98,0.71-4.81,1.19-7.41,1.19c-6.05,0-7.99-3.13-7.99-7.81v-6.75
		c0-4.41,1.98-7.81,8.03-7.81s7.81,3.4,7.81,7.81v4.15h-13.28v2.69C120.06,169.66,121.38,171.3,125.66,171.3"/>
        <path d="M147.97,153.69c-2.25,0.97-4.72,2.6-6.8,3.97v15.44h-2.56v-21.49h2.29l0.13,3.26c2.29-1.5,4.59-2.96,6.62-3.71
		L147.97,153.69z"/>
        <polygon points="151.88,151.62 165.83,151.62 165.78,153.69 154.22,171.03 166.18,171.03 166.18,173.1 151.53,173.1 151.53,171.03
		163.13,153.69 151.84,153.69 	"/>
        <path d="M173.81,170.77c1.68,0.31,3.4,0.44,4.94,0.44c4.63,0,5.73-1.94,5.73-5.16v-8.65c0-2.56-1.15-3.75-3.97-3.75
		c-2.6,0-4.68,0.71-6.71,1.85v15.27L173.81,170.77L173.81,170.77z M187.05,165.96c0,4.81-2.12,7.59-8.6,7.59
		c-1.85,0-5.21-0.31-7.19-0.79v-29.92l2.56-0.35v10.33c1.77-0.93,4.15-1.63,7.06-1.63c4.32,0,6.18,2.47,6.18,6.27L187.05,165.96
		L187.05,165.96z"/>
        <path d="M195.14,151.62V169c0,1.59,0.84,2.16,2.34,2.16c1.76,0,5.56-1.06,8.25-2.47v-17.08h2.56v21.49h-2.25l-0.18-1.94
		c-2.29,1.1-6.13,2.39-8.74,2.39c-3.36,0-4.55-1.9-4.55-4.86v-17.08L195.14,151.62L195.14,151.62z"/>
        <path d="M223.8,153.69c-2.25,0.97-4.72,2.6-6.79,3.97v15.44h-2.56v-21.49h2.29l0.13,3.26c2.3-1.5,4.59-2.96,6.62-3.71L223.8,153.69
		z"/>
        <path d="M235.47,153.38c-4.28,0-5.78,1.32-5.78,5.25v0.44c0,4.06,1.85,5.25,5.78,5.25s5.78-1.37,5.78-5.25v-0.44
		C241.25,154.75,239.75,153.38,235.47,153.38 M235.47,166.53c-1.1,0-1.99-0.09-2.87-0.27c-1.19,0.97-1.68,1.81-1.68,2.83
		c0,0.84,0.49,1.41,1.94,1.54c2.69,0.22,3.31,0.27,6.18,0.49c3.93,0.31,5.34,2.12,5.34,5.12c0,4.46-2.2,6-9.18,6
		c-1.98,0-5.25-0.4-7.55-1.06l0.4-2.03c2.12,0.48,4.94,0.88,7.24,0.88c5.82,0,6.58-1.19,6.58-3.66c0-2.12-0.88-2.96-3.44-3.13
		c-2.74-0.18-2.96-0.18-5.82-0.4c-3.18-0.27-4.24-1.9-4.24-3.8c0-1.14,0.49-2.47,2.03-3.62c-2.16-1.24-3.18-3.4-3.18-6.44v-0.26
		c0-4.86,2.16-7.55,8.25-7.55c1.46,0,2.6,0.13,3.62,0.44H245v1.85l-2.69,0.22c0.97,1.24,1.41,2.96,1.41,5.03v0.26
		C243.72,163.84,241.12,166.53,235.47,166.53"/>
        <polygon points="276.33,145.57 269.79,173.1 265.74,173.1 257.79,143.72 260.31,143.72 267.68,171.12 274.25,143.72 278.4,143.72
		284.97,171.12 292.34,143.72 294.86,143.72 286.92,173.1 282.86,173.1 	"/>
        <path d="M300.01,160.84h10.77v-1.94c0-3.62-1.28-5.52-5.3-5.52s-5.47,1.9-5.47,5.52V160.84z M305.62,171.3
		c2.21,0,4.68-0.44,6.8-1.02l0.44,2.07c-1.99,0.71-4.81,1.19-7.41,1.19c-6.05,0-7.99-3.13-7.99-7.81v-6.75
		c0-4.41,1.98-7.81,8.03-7.81s7.81,3.4,7.81,7.81v4.15h-13.28v2.69C300.01,169.66,301.34,171.3,305.62,171.3"/>
        <path d="M321.14,170.77c1.68,0.31,3.4,0.44,4.94,0.44c4.63,0,5.73-1.94,5.73-5.16v-8.65c0-2.56-1.15-3.75-3.97-3.75
		c-2.6,0-4.68,0.71-6.71,1.85L321.14,170.77L321.14,170.77z M334.38,165.96c0,4.81-2.12,7.59-8.6,7.59c-1.85,0-5.21-0.31-7.19-0.79
		v-29.92l2.56-0.35v10.33c1.77-0.93,4.15-1.63,7.06-1.63c4.32,0,6.18,2.47,6.18,6.27L334.38,165.96L334.38,165.96z"/>
        <polygon points="366.58,145.57 360.05,173.1 355.99,173.1 348.05,143.72 350.57,143.72 357.93,171.12 364.51,143.72 368.66,143.72
		375.23,171.12 382.6,143.72 385.12,143.72 377.17,173.1 373.11,173.1 	"/>
        <path d="M390.27,160.84h10.77v-1.94c0-3.62-1.28-5.52-5.29-5.52c-4.02,0-5.47,1.9-5.47,5.52L390.27,160.84L390.27,160.84z
		 M395.88,171.3c2.21,0,4.68-0.44,6.8-1.02l0.44,2.07c-1.98,0.71-4.81,1.19-7.41,1.19c-6.05,0-7.99-3.13-7.99-7.81v-6.75
		c0-4.41,1.99-7.81,8.03-7.81s7.81,3.4,7.81,7.81v4.15h-13.28v2.69C390.27,169.66,391.59,171.3,395.88,171.3"/>
        <path d="M410.87,160.84h10.77v-1.94c0-3.62-1.28-5.52-5.29-5.52c-4.02,0-5.47,1.9-5.47,5.52L410.87,160.84L410.87,160.84z
		 M416.48,171.3c2.21,0,4.68-0.44,6.8-1.02l0.44,2.07c-1.98,0.71-4.81,1.19-7.41,1.19c-6.05,0-7.99-3.13-7.99-7.81v-6.75
		c0-4.41,1.99-7.81,8.03-7.81s7.81,3.4,7.81,7.81v4.15h-13.28v2.69C410.87,169.66,412.2,171.3,416.48,171.3"/>
        <path d="M444.79,151.62l-8.56,10.59l8.91,10.9h-3.27l-8.74-10.9l8.47-10.59H444.79z M429.44,173.11v-30.27l2.56-0.35v30.62
		L429.44,173.11L429.44,173.11z"/>
        <g>
		<path class="st0" d="M456.97,168c0-6.97,2.02-8.32,9.54-9.03c5.63-0.55,6.34-1.18,6.34-7.39c0-4.87-0.71-6.01-6.47-6.01
			c-5.92,0-6.55,0.84-6.55,5.67v1.47h-2.69v-1.81c0-5.08,0.46-8.28,9.37-8.28c7.02,0,9.28,1.47,9.28,8.91
			c0,6.64-0.59,9.87-8.7,10.38c-6.55,0.42-7.18,1.89-7.18,5.46v3.07h15.67v2.94h-18.61L456.97,168L456.97,168z"/>
            <path class="st0" d="M498.98,164.26c0,8.32-2.69,9.45-9.66,9.45s-9.66-1.13-9.66-9.45v-12.18c0-8.32,2.69-9.45,9.66-9.45
			s9.66,1.13,9.66,9.45V164.26z M496.04,151.19c0-5.55-1.39-5.63-6.72-5.63s-6.72,0.08-6.72,5.63v13.95c0,5.54,1.39,5.63,6.72,5.63
			s6.72-0.08,6.72-5.63V151.19z"/>
            <path class="st0" d="M502.84,168c0-6.97,2.02-8.32,9.54-9.03c5.63-0.55,6.34-1.18,6.34-7.39c0-4.87-0.71-6.01-6.47-6.01
			c-5.92,0-6.55,0.84-6.55,5.67v1.47H503v-1.81c0-5.08,0.46-8.28,9.37-8.28c7.02,0,9.28,1.47,9.28,8.91c0,6.64-0.59,9.87-8.7,10.38
			c-6.55,0.42-7.18,1.89-7.18,5.46v3.07h15.67v2.94h-18.61L502.84,168L502.84,168z"/>
	</g>
        <g>
		<path class="st0" d="M525.77,168c0-6.97,2.02-8.32,9.54-9.03c5.63-0.55,6.34-1.18,6.34-7.39c0-4.87-0.71-6.01-6.47-6.01
			c-5.92,0-6.55,0.84-6.55,5.67v1.47h-2.7v-1.81c0-5.08,0.46-8.28,9.37-8.28c7.02,0,9.28,1.47,9.28,8.91c0,6.64-0.59,9.87-8.7,10.38
			c-6.55,0.42-7.18,1.89-7.18,5.46v3.07h15.67v2.94h-18.61V168H525.77z"/>
	</g>
        <g>
		<polygon class="st1" points="448.76,30.36 448.03,30.36 448.72,30.51 		"/>
            <polygon class="st2" points="448.72,30.51 448.03,30.36 446.84,30.36 448.66,30.77 		"/>
            <polygon class="st3" points="448.66,30.77 446.84,30.36 445.64,30.36 448.6,31.02 		"/>
            <polygon class="st4" points="448.6,31.02 445.64,30.36 444.45,30.36 448.54,31.28 		"/>
            <polygon class="st5" points="448.54,31.28 444.45,30.36 443.25,30.36 448.47,31.53 		"/>
            <polygon class="st6" points="448.47,31.53 443.25,30.36 442.06,30.36 448.41,31.78 		"/>
            <polygon class="st7" points="448.41,31.78 442.06,30.36 440.87,30.36 448.35,32.04 		"/>
            <polygon class="st8" points="448.35,32.04 440.87,30.36 439.67,30.36 448.29,32.29 		"/>
            <polygon class="st9" points="448.29,32.29 439.67,30.36 438.48,30.36 448.23,32.54 		"/>
            <polygon class="st10" points="448.23,32.54 438.48,30.36 437.28,30.36 448.16,32.8 		"/>
            <polygon class="st11" points="448.16,32.8 437.28,30.36 436.09,30.36 448.1,33.05 		"/>
            <polygon class="st12" points="448.1,33.05 436.09,30.36 434.89,30.36 448.04,33.3 		"/>
            <polygon class="st13" points="448.04,33.3 434.89,30.36 433.7,30.36 447.98,33.56 		"/>
            <polygon class="st14" points="447.98,33.56 433.7,30.36 432.51,30.36 447.92,33.81 		"/>
            <polygon class="st15" points="447.92,33.81 432.51,30.36 431.31,30.36 447.85,34.06 		"/>
            <polygon class="st16" points="447.85,34.06 431.31,30.36 430.12,30.36 447.79,34.32 		"/>
            <polygon class="st17" points="447.79,34.32 430.12,30.36 428.92,30.36 447.73,34.57 		"/>
            <polygon class="st18" points="447.73,34.57 428.92,30.36 427.73,30.36 447.67,34.82 		"/>
            <polygon class="st19" points="447.67,34.82 427.73,30.36 426.54,30.36 447.61,35.08 		"/>
            <polygon class="st20" points="447.61,35.08 426.54,30.36 426.51,30.36 426.45,30.61 447.54,35.33 		"/>
            <polygon class="st21" points="447.54,35.33 426.45,30.61 426.39,30.86 447.48,35.58 		"/>
            <polygon class="st22" points="447.48,35.58 426.39,30.86 426.33,31.12 447.42,35.84 		"/>
            <polygon class="st23" points="447.42,35.84 426.33,31.12 426.27,31.37 447.36,36.09 		"/>
            <polygon class="st24" points="447.36,36.09 426.27,31.37 426.21,31.62 447.3,36.34 		"/>
            <polygon class="st25" points="447.3,36.34 426.21,31.62 426.15,31.88 447.23,36.6 		"/>
            <polygon class="st26" points="447.23,36.6 426.15,31.88 426.09,32.13 447.17,36.85 		"/>
            <polygon class="st27" points="447.17,36.85 426.09,32.13 426.03,32.39 447.11,37.1 		"/>
            <polygon class="st28" points="447.11,37.1 426.03,32.39 425.97,32.64 447.05,37.36 		"/>
            <polygon class="st29" points="447.05,37.36 425.97,32.64 425.91,32.89 446.99,37.61 		"/>
            <polygon class="st30" points="446.99,37.61 425.91,32.89 425.85,33.15 446.92,37.87 		"/>
            <polygon class="st31" points="446.92,37.87 425.85,33.15 425.79,33.4 446.86,38.12 		"/>
            <polygon class="st32" points="446.86,38.12 425.79,33.4 425.73,33.66 446.8,38.37 		"/>
            <polygon class="st33" points="446.8,38.37 425.73,33.66 425.67,33.91 446.74,38.63 		"/>
            <polygon class="st34" points="446.74,38.63 425.67,33.91 425.62,34.16 446.68,38.88 		"/>
            <polygon class="st35" points="446.68,38.88 425.62,34.16 425.56,34.42 446.61,39.13 		"/>
            <polygon class="st36" points="446.61,39.13 425.56,34.42 425.5,34.67 446.55,39.39 		"/>
            <polygon class="st37" points="446.55,39.39 425.5,34.67 425.44,34.93 446.49,39.64 		"/>
            <polygon class="st38" points="446.49,39.64 425.44,34.93 425.38,35.18 446.43,39.89 		"/>
            <polygon class="st39" points="446.43,39.89 425.38,35.18 425.32,35.43 446.37,40.15 		"/>
            <polygon class="st40" points="446.37,40.15 425.32,35.43 425.26,35.69 446.3,40.4 		"/>
            <polygon class="st41" points="446.3,40.4 425.26,35.69 425.2,35.94 446.24,40.65 		"/>
            <polygon class="st42" points="446.24,40.65 425.2,35.94 425.14,36.2 446.18,40.91 		"/>
            <polygon class="st43" points="446.18,40.91 425.14,36.2 425.08,36.45 446.12,41.16 		"/>
            <polygon class="st44" points="446.12,41.16 425.08,36.45 425.02,36.7 446.05,41.41 		"/>
            <polygon class="st45" points="446.05,41.41 425.02,36.7 424.96,36.96 445.99,41.67 		"/>
            <polygon class="st46" points="445.99,41.67 424.96,36.96 424.9,37.21 445.93,41.92 		"/>
            <polygon class="st47" points="445.93,41.92 424.9,37.21 424.84,37.47 445.87,42.17 		"/>
            <polygon class="st48" points="445.87,42.17 424.84,37.47 424.78,37.72 445.81,42.43 		"/>
            <polygon class="st49" points="445.81,42.43 424.78,37.72 424.72,37.97 445.74,42.68 		"/>
            <polygon class="st50" points="445.74,42.68 424.72,37.97 424.66,38.23 445.68,42.93 		"/>
            <polygon class="st51" points="445.68,42.93 424.66,38.23 424.6,38.48 445.62,43.19 		"/>
            <polygon class="st52" points="445.62,43.19 424.6,38.48 424.54,38.74 445.56,43.44 		"/>
            <polygon class="st53" points="445.56,43.44 424.54,38.74 424.48,38.99 445.5,43.69 		"/>
            <polygon class="st54" points="445.5,43.69 424.48,38.99 424.42,39.24 445.43,43.95 		"/>
            <polygon class="st55" points="445.43,43.95 424.42,39.24 424.36,39.5 445.37,44.2 		"/>
            <polygon class="st56" points="445.37,44.2 424.36,39.5 424.3,39.75 445.31,44.45 		"/>
            <polygon class="st57" points="445.31,44.45 424.3,39.75 424.24,40.01 445.25,44.71 		"/>
            <polygon class="st58" points="445.25,44.71 424.24,40.01 424.18,40.26 445.19,44.96 		"/>
            <polygon class="st59" points="445.19,44.96 424.18,40.26 424.12,40.51 445.12,45.22 		"/>
            <polygon class="st60" points="445.12,45.22 424.12,40.51 424.06,40.77 445.06,45.47 		"/>
            <polygon class="st61" points="445.06,45.47 424.06,40.77 424,41.02 445,45.72 		"/>
            <polygon class="st62" points="445,45.72 424,41.02 423.94,41.28 444.94,45.98 		"/>
            <polygon class="st63" points="444.94,45.98 423.94,41.28 423.88,41.53 444.88,46.23 		"/>
            <polygon class="st64" points="444.88,46.23 423.88,41.53 423.82,41.78 444.81,46.48 		"/>
            <polygon class="st65" points="444.81,46.48 423.82,41.78 423.76,42.04 444.75,46.74 		"/>
            <polygon class="st66" points="444.75,46.74 423.76,42.04 423.7,42.29 444.69,46.99 		"/>
            <polygon class="st67" points="444.69,46.99 423.7,42.29 423.64,42.54 444.63,47.24 		"/>
            <polygon class="st68" points="444.63,47.24 423.64,42.54 423.58,42.8 444.57,47.5 		"/>
            <polygon class="st69" points="444.57,47.5 423.58,42.8 423.52,43.05 444.5,47.75 		"/>
            <polygon class="st70" points="444.5,47.75 423.52,43.05 423.46,43.31 444.44,48 		"/>
            <polygon class="st71" points="444.44,48 423.46,43.31 423.4,43.56 444.38,48.26 		"/>
            <polygon class="st72" points="444.38,48.26 423.4,43.56 423.35,43.81 444.32,48.51 		"/>
            <polygon class="st73" points="444.32,48.51 423.35,43.81 423.29,44.07 444.26,48.76 		"/>
            <polygon class="st74" points="444.26,48.76 423.29,44.07 423.23,44.32 444.19,49.02 		"/>
            <polygon class="st75" points="444.19,49.02 423.23,44.32 423.17,44.58 444.13,49.27 		"/>
            <polygon class="st76" points="444.13,49.27 423.17,44.58 423.11,44.83 444.07,49.52 		"/>
            <polygon class="st77" points="444.07,49.52 423.11,44.83 423.05,45.08 444.01,49.78 		"/>
            <polygon class="st78" points="444.01,49.78 423.05,45.08 422.99,45.34 443.95,50.03 		"/>
            <polygon class="st79" points="443.95,50.03 422.99,45.34 422.93,45.59 443.88,50.28 		"/>
            <polygon class="st80" points="443.88,50.28 422.93,45.59 422.87,45.85 443.82,50.54 		"/>
            <polygon class="st81" points="443.82,50.54 422.87,45.85 422.81,46.1 443.76,50.79 		"/>
            <polygon class="st82" points="443.76,50.79 422.81,46.1 422.75,46.35 443.7,51.04 		"/>
            <polygon class="st83" points="443.7,51.04 422.75,46.35 422.69,46.61 443.64,51.3 		"/>
            <polygon class="st84" points="443.64,51.3 422.69,46.61 422.63,46.86 443.57,51.55 		"/>
            <polygon class="st85" points="443.57,51.55 422.63,46.86 422.57,47.12 443.51,51.8 		"/>
            <polygon class="st86" points="443.51,51.8 422.57,47.12 422.51,47.37 443.45,52.06 		"/>
            <polygon class="st87" points="443.45,52.06 422.51,47.37 422.45,47.62 443.39,52.31 		"/>
            <polygon class="st88" points="443.39,52.31 422.45,47.62 422.39,47.88 443.33,52.57 		"/>
            <polygon class="st89" points="443.33,52.57 422.39,47.88 422.33,48.13 443.26,52.82 		"/>
            <polygon class="st90" points="443.26,52.82 422.33,48.13 422.27,48.39 443.2,53.07 		"/>
            <polygon class="st91" points="443.2,53.07 422.27,48.39 422.21,48.64 443.14,53.33 		"/>
            <polygon class="st92" points="443.14,53.33 422.21,48.64 422.15,48.89 443.08,53.58 		"/>
            <polygon class="st93" points="443.08,53.58 422.15,48.89 422.09,49.15 443.02,53.83 		"/>
            <polygon class="st94" points="443.02,53.83 422.09,49.15 422.03,49.4 442.95,54.09 		"/>
            <polygon class="st95" points="442.95,54.09 422.03,49.4 421.97,49.66 442.89,54.34 		"/>
            <polygon class="st96" points="442.89,54.34 421.97,49.66 421.91,49.91 442.83,54.59 		"/>
            <polygon class="st97" points="442.83,54.59 421.91,49.91 421.85,50.16 442.77,54.85 		"/>
            <polygon class="st98" points="442.77,54.85 421.85,50.16 421.79,50.42 442.71,55.1 		"/>
            <polygon class="st99" points="442.71,55.1 421.79,50.42 421.73,50.67 442.64,55.35 		"/>
            <polygon class="st100" points="442.64,55.35 421.73,50.67 421.67,50.93 442.58,55.61 		"/>
            <polygon class="st101" points="442.58,55.61 421.67,50.93 421.61,51.18 442.52,55.86 		"/>
            <polygon class="st102" points="442.52,55.86 421.61,51.18 421.55,51.43 442.46,56.11 		"/>
            <polygon class="st103" points="442.46,56.11 421.55,51.43 421.49,51.69 442.4,56.37 		"/>
            <polygon class="st104" points="442.4,56.37 421.49,51.69 421.43,51.94 442.33,56.62 		"/>
            <polygon class="st105" points="442.33,56.62 421.43,51.94 421.37,52.2 442.27,56.87 		"/>
            <polygon class="st106" points="442.27,56.87 421.37,52.2 421.31,52.45 442.21,57.13 		"/>
            <polygon class="st107" points="442.21,57.13 421.31,52.45 421.25,52.7 442.15,57.38 		"/>
            <polygon class="st108" points="442.15,57.38 421.25,52.7 421.19,52.96 442.09,57.63 		"/>
            <polygon class="st109" points="442.09,57.63 421.19,52.96 421.13,53.21 442.02,57.89 		"/>
            <polygon class="st110" points="442.02,57.89 421.13,53.21 421.08,53.47 441.96,58.14 		"/>
            <polygon class="st111" points="441.96,58.14 421.08,53.47 421.02,53.72 441.9,58.39 		"/>
            <polygon class="st112" points="441.9,58.39 421.02,53.72 420.96,53.97 441.84,58.65 		"/>
            <polygon class="st113" points="441.84,58.65 420.96,53.97 420.9,54.23 441.78,58.9 		"/>
            <polygon class="st114" points="441.78,58.9 420.9,54.23 420.84,54.48 441.71,59.15 		"/>
            <polygon class="st115" points="441.71,59.15 420.84,54.48 420.78,54.74 441.65,59.41 		"/>
            <polygon class="st116" points="441.65,59.41 420.78,54.74 420.72,54.99 441.59,59.66 		"/>
            <polygon class="st117" points="441.59,59.66 420.72,54.99 420.66,55.24 441.53,59.92 		"/>
            <polygon class="st118" points="441.53,59.92 420.66,55.24 420.6,55.5 441.46,60.17 		"/>
            <polygon class="st119" points="441.46,60.17 420.6,55.5 420.54,55.75 441.4,60.42 		"/>
            <polygon class="st120" points="441.4,60.42 420.54,55.75 420.48,56.01 441.34,60.68 		"/>
            <polygon class="st121" points="441.34,60.68 420.48,56.01 420.42,56.26 441.28,60.93 		"/>
            <polygon class="st122" points="441.28,60.93 420.42,56.26 420.36,56.51 441.22,61.18 		"/>
            <polygon class="st123" points="441.22,61.18 420.36,56.51 420.3,56.77 441.15,61.44 		"/>
            <polygon class="st124" points="441.15,61.44 420.3,56.77 420.24,57.02 441.09,61.69 		"/>
            <polygon class="st125" points="441.09,61.69 420.24,57.02 420.18,57.27 441.03,61.94 		"/>
            <polygon class="st126" points="441.03,61.94 420.18,57.27 420.12,57.53 440.97,62.2 		"/>
            <polygon class="st127" points="440.97,62.2 420.12,57.53 420.06,57.78 440.91,62.45 		"/>
            <polygon class="st128" points="440.91,62.45 420.06,57.78 420,58.04 440.84,62.7 		"/>
            <polygon class="st129" points="440.84,62.7 420,58.04 419.94,58.29 440.78,62.96 		"/>
            <polygon class="st130" points="440.78,62.96 419.94,58.29 419.88,58.54 440.72,63.21 		"/>
            <polygon class="st131" points="440.72,63.21 419.88,58.54 419.82,58.8 440.66,63.46 		"/>
            <polygon class="st132" points="440.66,63.46 419.82,58.8 419.76,59.05 440.6,63.72 		"/>
            <polygon class="st133" points="440.6,63.72 419.76,59.05 419.7,59.31 440.53,63.97 		"/>
            <polygon class="st134" points="440.53,63.97 419.7,59.31 419.64,59.56 440.47,64.22 		"/>
            <polygon class="st135" points="440.47,64.22 419.64,59.56 419.58,59.81 440.41,64.48 		"/>
            <polygon class="st136" points="440.41,64.48 419.58,59.81 419.52,60.07 440.35,64.73 		"/>
            <polygon class="st137" points="440.35,64.73 419.52,60.07 419.46,60.32 440.29,64.98 		"/>
            <polygon class="st138" points="440.29,64.98 419.46,60.32 419.4,60.58 440.22,65.24 		"/>
            <polygon class="st139" points="440.22,65.24 419.4,60.58 419.34,60.83 440.16,65.49 		"/>
            <polygon class="st140" points="440.16,65.49 419.34,60.83 419.28,61.08 440.1,65.74 		"/>
            <polygon class="st141" points="440.1,65.74 419.28,61.08 419.22,61.34 440.04,66 		"/>
            <polygon class="st142" points="440.04,66 419.22,61.34 419.16,61.59 439.98,66.25 		"/>
            <polygon class="st143" points="439.98,66.25 419.16,61.59 419.1,61.85 439.91,66.51 		"/>
            <polygon class="st144" points="439.91,66.51 419.1,61.85 419.04,62.1 439.85,66.76 		"/>
            <polygon class="st145" points="439.85,66.76 419.04,62.1 418.98,62.35 439.79,67.01 		"/>
            <polygon class="st146" points="439.79,67.01 418.98,62.35 418.92,62.61 439.73,67.27 		"/>
            <polygon class="st147" points="439.73,67.27 418.92,62.61 418.86,62.86 439.67,67.52 		"/>
            <polygon class="st148" points="439.67,67.52 418.86,62.86 418.81,63.12 439.6,67.77 		"/>
            <polygon class="st149" points="439.6,67.77 418.81,63.12 418.75,63.37 439.54,68.03 		"/>
            <polygon class="st150" points="439.54,68.03 418.75,63.37 418.69,63.62 439.48,68.28 		"/>
            <polygon class="st151" points="439.48,68.28 418.69,63.62 418.63,63.88 439.42,68.53 		"/>
            <polygon class="st152" points="439.42,68.53 418.63,63.88 418.57,64.13 439.36,68.79 		"/>
            <polygon class="st153" points="439.36,68.79 418.57,64.13 418.51,64.39 439.29,69.04 		"/>
            <polygon class="st154" points="439.29,69.04 418.51,64.39 418.45,64.64 439.23,69.29 		"/>
            <polygon class="st155" points="439.23,69.29 418.45,64.64 418.39,64.89 439.17,69.55 		"/>
            <polygon class="st156" points="439.17,69.55 418.39,64.89 418.33,65.15 439.11,69.8 		"/>
            <polygon class="st157" points="439.11,69.8 418.33,65.15 418.27,65.4 439.05,70.05 		"/>
            <polygon class="st158" points="439.05,70.05 418.27,65.4 418.21,65.66 438.98,70.31 		"/>
            <polygon class="st159" points="438.98,70.31 418.21,65.66 418.15,65.91 438.92,70.56 		"/>
            <polygon class="st160" points="438.92,70.56 418.15,65.91 418.09,66.16 438.86,70.81 		"/>
            <polygon class="st161" points="438.86,70.81 418.09,66.16 418.03,66.42 438.8,71.07 		"/>
            <polygon class="st162" points="438.8,71.07 418.03,66.42 417.97,66.67 438.74,71.32 		"/>
            <polygon class="st163" points="438.74,71.32 417.97,66.67 417.91,66.93 438.67,71.57 		"/>
            <polygon class="st164" points="438.67,71.57 417.91,66.93 417.85,67.18 438.61,71.83 		"/>
            <polygon class="st165" points="438.61,71.83 417.85,67.18 417.79,67.43 438.55,72.08 		"/>
            <polygon class="st166" points="438.55,72.08 417.79,67.43 417.73,67.69 438.49,72.33 		"/>
            <polygon class="st167" points="438.49,72.33 417.73,67.69 417.67,67.94 438.43,72.59 		"/>
            <polygon class="st168" points="438.43,72.59 417.67,67.94 417.61,68.2 438.36,72.84 		"/>
            <polygon class="st169" points="438.36,72.84 417.61,68.2 417.55,68.45 438.3,73.09 		"/>
            <polygon class="st170" points="438.3,73.09 417.55,68.45 417.49,68.7 438.24,73.35 		"/>
            <polygon class="st171" points="438.24,73.35 417.49,68.7 417.43,68.96 438.18,73.6 		"/>
            <polygon class="st172" points="438.18,73.6 417.43,68.96 417.37,69.21 438.12,73.86 		"/>
            <polygon class="st173" points="438.12,73.86 417.37,69.21 417.31,69.47 438.05,74.11 		"/>
            <polygon class="st174" points="438.05,74.11 417.31,69.47 417.25,69.72 437.99,74.36 		"/>
            <polygon class="st175" points="437.99,74.36 417.25,69.72 417.19,69.97 437.93,74.62 		"/>
            <polygon class="st176" points="437.93,74.62 417.19,69.97 417.13,70.23 437.87,74.87 		"/>
            <polygon class="st177" points="437.87,74.87 417.13,70.23 417.07,70.48 437.81,75.12 		"/>
            <polygon class="st178" points="437.81,75.12 417.07,70.48 417.01,70.73 437.74,75.38 		"/>
            <polygon class="st179" points="437.74,75.38 417.01,70.73 416.95,70.99 437.68,75.63 		"/>
            <polygon class="st180" points="437.68,75.63 416.95,70.99 416.89,71.24 437.62,75.88 		"/>
            <polygon class="st181" points="437.62,75.88 416.89,71.24 416.83,71.5 437.56,76.14 		"/>
            <polygon class="st182" points="437.56,76.14 416.83,71.5 416.77,71.75 437.5,76.39 		"/>
            <polygon class="st183" points="437.5,76.39 416.77,71.75 416.71,72 437.43,76.64 		"/>
            <polygon class="st184" points="437.43,76.64 416.71,72 416.65,72.26 437.37,76.9 		"/>
            <polygon class="st185" points="437.37,76.9 416.65,72.26 416.59,72.51 437.31,77.15 		"/>
            <polygon class="st186" points="437.31,77.15 416.59,72.51 416.54,72.77 437.25,77.4 		"/>
            <polygon class="st187" points="437.25,77.4 416.54,72.77 416.48,73.02 437.18,77.66 		"/>
            <polygon class="st188" points="437.18,77.66 416.48,73.02 416.42,73.27 437.12,77.91 		"/>
            <polygon class="st189" points="437.12,77.91 416.42,73.27 416.36,73.53 437.06,78.16 		"/>
            <polygon class="st190" points="437.06,78.16 416.36,73.53 416.3,73.78 437,78.42 		"/>
            <polygon class="st191" points="437,78.42 416.3,73.78 416.24,74.04 436.94,78.67 		"/>
            <polygon class="st192" points="436.94,78.67 416.24,74.04 416.18,74.29 436.87,78.92 		"/>
            <polygon class="st193" points="436.87,78.92 416.18,74.29 416.12,74.54 436.81,79.18 		"/>
            <polygon class="st194" points="436.81,79.18 416.12,74.54 416.06,74.8 436.75,79.43 		"/>
            <polygon class="st195" points="436.75,79.43 416.06,74.8 416,75.05 436.69,79.68 		"/>
            <polygon class="st196" points="436.69,79.68 416,75.05 415.94,75.31 436.63,79.94 		"/>
            <polygon class="st197" points="436.63,79.94 415.94,75.31 415.88,75.56 436.56,80.19 		"/>
            <polygon class="st198" points="436.56,80.19 415.88,75.56 415.82,75.81 436.5,80.44 		"/>
            <polygon class="st199" points="436.5,80.44 415.82,75.81 415.76,76.07 436.44,80.7 		"/>
            <polygon class="st200" points="436.44,80.7 415.76,76.07 415.7,76.32 436.38,80.95 		"/>
            <polygon class="st201" points="436.38,80.95 415.7,76.32 415.64,76.58 436.32,81.21 		"/>
            <polygon class="st202" points="436.32,81.21 415.64,76.58 415.58,76.83 436.25,81.46 		"/>
            <polygon class="st203" points="436.25,81.46 415.58,76.83 415.52,77.08 436.19,81.71 		"/>
            <polygon class="st204" points="436.19,81.71 415.52,77.08 415.46,77.34 436.13,81.97 		"/>
            <polygon class="st205" points="436.13,81.97 415.46,77.34 415.4,77.59 436.07,82.22 		"/>
            <polygon class="st206" points="436.07,82.22 415.4,77.59 415.34,77.85 436.01,82.47 		"/>
            <polygon class="st207" points="436.01,82.47 415.34,77.85 415.28,78.1 435.94,82.73 		"/>
            <polygon class="st208" points="435.94,82.73 415.28,78.1 415.22,78.35 435.88,82.98 		"/>
            <polygon class="st209" points="435.88,82.98 415.22,78.35 415.16,78.61 435.82,83.23 		"/>
            <polygon class="st210" points="435.82,83.23 415.16,78.61 415.1,78.86 435.76,83.49 		"/>
            <polygon class="st211" points="435.76,83.49 415.1,78.86 415.04,79.12 435.7,83.74 		"/>
            <polygon class="st212" points="435.7,83.74 415.04,79.12 414.98,79.37 435.63,83.99 		"/>
            <polygon class="st213" points="435.63,83.99 414.98,79.37 414.92,79.62 435.57,84.25 		"/>
            <polygon class="st214" points="435.57,84.25 414.92,79.62 414.86,79.88 435.51,84.5 		"/>
            <polygon class="st215" points="435.51,84.5 414.86,79.88 414.8,80.13 435.45,84.75 		"/>
            <polygon class="st216" points="435.45,84.75 414.8,80.13 414.74,80.39 435.39,85.01 		"/>
            <polygon class="st0" points="435.39,85.01 414.74,80.39 414.16,82.86 434.78,87.47 		"/>
	</g>
        <polygon class="st0" points="544.68,30.36 527.85,101.91 510.71,30.36 483.2,30.36 465.77,101.91 448.78,30.36 426.54,30.36
		451.18,130.47 479.9,130.47 496.88,54.41 513.72,130.47 542.43,130.47 566.93,30.36 	"/>
</g>
    <g id="Ebene_2">
</g>
</svg>
