<svg xmlns="http://www.w3.org/2000/svg" xmlns:xlink="http://www.w3.org/1999/xlink" viewBox="0 0 595.28 212.6"><defs><style>.cls-1{fill:url(#Unbenannter_Verlauf_5);}.cls-2{isolation:isolate;}.cls-3{fill:#fff;}.cls-4{fill:#40464b;}.cls-5{fill:#1a9eda;}.cls-6{mix-blend-mode:multiply;}.cls-7{clip-path:url(#clip-path);}.cls-8{fill:url(#Unbenannter_Verlauf_7);}</style><linearGradient id="Unbenannter_Verlauf_5" x1="409.68" y1="80.41" x2="448.76" y2="80.41" gradientUnits="userSpaceOnUse"><stop offset="0.35" stop-color="#fff"/><stop offset="1"/></linearGradient><clipPath id="clip-path"><polygon class="cls-1" points="448.76 30.36 426.51 30.36 409.68 101.91 424.25 130.47 448.76 30.36"/></clipPath><linearGradient id="Unbenannter_Verlauf_7" x1="327.03" y1="831.88" x2="328.71" y2="831.88" gradientTransform="matrix(63.07, 0, 0, -63.07, -20249.95, 52548.41)" gradientUnits="userSpaceOnUse"><stop offset="0.42" stop-color="#fff"/><stop offset="1"/></linearGradient></defs><title>WUEWW_2019_Logo_weiß</title><g class="cls-2"><g id="Ebene_1" data-name="Ebene 1"><rect class="cls-3" width="595.28" height="212.6"/><polygon class="cls-4" points="146.49 30.36 129.66 101.91 112.52 30.36 85.01 30.36 67.58 101.91 50.59 30.36 28.35 30.36 53 130.47 81.71 130.47 98.69 54.41 115.53 130.47 144.24 130.47 168.74 30.36 146.49 30.36"/><path class="cls-4" d="M248.44,30.36v71c0,15.18-9.47,30.66-37.72,30.66S173,116.49,173,101.31V30.36h22.54V99.2c0,8.12,3.91,12.78,15.19,12.78s15.18-4.66,15.18-12.78V30.36Z"/><polygon class="cls-4" points="257.72 30.36 257.72 130.47 320.71 130.47 320.71 110.48 280.27 110.48 280.27 88.68 317.55 88.68 317.55 68.69 280.27 68.69 280.27 50.35 320.71 50.35 320.71 30.36 257.72 30.36"/><polygon class="cls-5" points="426.51 30.36 409.67 101.91 392.54 30.36 365.03 30.36 347.6 101.91 330.61 30.36 308.36 30.36 333.01 130.47 361.72 130.47 378.71 54.41 395.54 130.47 424.25 130.47 448.76 30.36 426.51 30.36"/><polygon class="cls-4" points="74.01 145.57 67.48 173.1 63.42 173.1 55.47 143.72 57.99 143.72 65.36 171.12 71.93 143.72 76.08 143.72 82.66 171.12 90.02 143.72 92.54 143.72 84.6 173.1 80.54 173.1 74.01 145.57"/><path class="cls-4" d="M98.86,151.62V169c0,1.59.83,2.16,2.34,2.16a22.72,22.72,0,0,0,8.25-2.47V151.62H112V173.1h-2.25l-.18-1.94a24,24,0,0,1-8.74,2.39c-3.35,0-4.54-1.9-4.54-4.86V151.62Z"/><path class="cls-4" d="M120.06,160.84h10.76V158.9c0-3.62-1.28-5.52-5.29-5.52s-5.47,1.9-5.47,5.52Zm5.6,10.46a27.42,27.42,0,0,0,6.8-1l.44,2.07a23.64,23.64,0,0,1-7.42,1.2c-6,0-8-3.14-8-7.81V159c0-4.41,2-7.81,8-7.81s7.81,3.4,7.81,7.81v4.15H120.06v2.69c0,3.84,1.32,5.48,5.6,5.48"/><path class="cls-4" d="M148,153.69a47.91,47.91,0,0,0-6.79,4V173.1h-2.56V151.62h2.29l.14,3.26a36.39,36.39,0,0,1,6.62-3.71Z"/><polygon class="cls-4" points="151.88 151.62 165.83 151.62 165.78 153.69 154.22 171.03 166.18 171.03 166.18 173.1 151.53 173.1 151.53 171.03 163.13 153.69 151.84 153.69 151.88 151.62"/><path class="cls-4" d="M173.81,170.77a27.73,27.73,0,0,0,4.95.44c4.63,0,5.73-1.94,5.73-5.17V157.4c0-2.56-1.14-3.75-4-3.75a13.07,13.07,0,0,0-6.71,1.85ZM187.05,166c0,4.81-2.12,7.59-8.6,7.59a36.9,36.9,0,0,1-7.19-.8V142.83l2.55-.35v10.33a15.14,15.14,0,0,1,7.06-1.64c4.33,0,6.18,2.48,6.18,6.27Z"/><path class="cls-4" d="M195.14,151.62V169c0,1.59.83,2.16,2.34,2.16a22.78,22.78,0,0,0,8.25-2.47V151.62h2.55V173.1H206l-.18-1.94a24,24,0,0,1-8.74,2.39c-3.35,0-4.54-1.9-4.54-4.86V151.62Z"/><path class="cls-4" d="M223.8,153.69a47.91,47.91,0,0,0-6.79,4V173.1h-2.56V151.62h2.3l.13,3.26a36.39,36.39,0,0,1,6.62-3.71Z"/><path class="cls-4" d="M235.47,153.38c-4.28,0-5.78,1.32-5.78,5.25v.44c0,4.06,1.85,5.25,5.78,5.25s5.78-1.36,5.78-5.25v-.44c0-3.88-1.5-5.25-5.78-5.25m0,13.15a13.86,13.86,0,0,1-2.87-.27,3.59,3.59,0,0,0-1.67,2.83c0,.84.48,1.41,1.94,1.54l6.17.49c3.93.31,5.34,2.12,5.34,5.12,0,4.46-2.2,6-9.17,6a31.73,31.73,0,0,1-7.55-1.06l.4-2a34.89,34.89,0,0,0,7.23.88c5.83,0,6.58-1.19,6.58-3.66,0-2.12-.88-3-3.44-3.13-2.74-.18-3-.18-5.83-.4-3.18-.27-4.23-1.9-4.23-3.8a4.41,4.41,0,0,1,2-3.61c-2.17-1.24-3.18-3.4-3.18-6.44v-.27c0-4.85,2.16-7.55,8.25-7.55a12.24,12.24,0,0,1,3.62.45H245v1.85l-2.69.22a8,8,0,0,1,1.41,5V159c0,4.85-2.6,7.54-8.25,7.54"/><polygon class="cls-4" points="276.32 145.57 269.79 173.1 265.74 173.1 257.79 143.72 260.31 143.72 267.68 171.12 274.25 143.72 278.4 143.72 284.97 171.12 292.34 143.72 294.86 143.72 286.92 173.1 282.86 173.1 276.32 145.57"/><path class="cls-4" d="M300,160.84h10.77V158.9c0-3.62-1.28-5.52-5.3-5.52s-5.47,1.9-5.47,5.52Zm5.61,10.46a27.27,27.27,0,0,0,6.79-1l.44,2.07a23.57,23.57,0,0,1-7.41,1.2c-6,0-8-3.14-8-7.81V159c0-4.41,2-7.81,8-7.81s7.82,3.4,7.82,7.81v4.15H300v2.69c0,3.84,1.33,5.48,5.61,5.48"/><path class="cls-4" d="M321.14,170.77a27.62,27.62,0,0,0,4.94.44c4.63,0,5.74-1.94,5.74-5.17V157.4c0-2.56-1.15-3.75-4-3.75a13,13,0,0,0-6.7,1.85ZM334.38,166c0,4.81-2.12,7.59-8.61,7.59a37,37,0,0,1-7.19-.8V142.83l2.56-.35v10.33a15.11,15.11,0,0,1,7.06-1.64c4.32,0,6.18,2.48,6.18,6.27Z"/><polygon class="cls-4" points="366.58 145.57 360.05 173.1 355.99 173.1 348.05 143.72 350.56 143.72 357.93 171.12 364.51 143.72 368.66 143.72 375.23 171.12 382.6 143.72 385.12 143.72 377.17 173.1 373.11 173.1 366.58 145.57"/><path class="cls-4" d="M390.27,160.84H401V158.9c0-3.62-1.28-5.52-5.3-5.52s-5.47,1.9-5.47,5.52Zm5.61,10.46a27.41,27.41,0,0,0,6.79-1l.44,2.07a23.57,23.57,0,0,1-7.41,1.2c-6.05,0-8-3.14-8-7.81V159c0-4.41,2-7.81,8-7.81s7.81,3.4,7.81,7.81v4.15H390.27v2.69c0,3.84,1.32,5.48,5.61,5.48"/><path class="cls-4" d="M410.87,160.84h10.77V158.9c0-3.62-1.28-5.52-5.29-5.52s-5.48,1.9-5.48,5.52Zm5.61,10.46a27.34,27.34,0,0,0,6.79-1l.45,2.07a23.64,23.64,0,0,1-7.42,1.2c-6,0-8-3.14-8-7.81V159c0-4.41,2-7.81,8-7.81s7.81,3.4,7.81,7.81v4.15H410.87v2.69c0,3.84,1.33,5.48,5.61,5.48"/><path class="cls-4" d="M444.79,151.62l-8.56,10.59,8.92,10.9h-3.27l-8.73-10.9,8.47-10.59Zm-15.35,21.49V142.83l2.56-.35v30.63Z"/><g class="cls-6"><polygon class="cls-1" points="448.76 30.36 426.51 30.36 409.68 101.91 424.25 130.47 448.76 30.36"/><g class="cls-7"><rect class="cls-8" x="376.53" y="52.48" width="105.37" height="55.87" transform="translate(275.49 489.15) rotate(-80)"/></g></g><polygon class="cls-5" points="544.68 30.36 527.85 101.91 510.71 30.36 483.2 30.36 465.77 101.91 448.78 30.36 426.54 30.36 451.19 130.47 479.89 130.47 496.88 54.41 513.72 130.47 542.43 130.47 566.93 30.36 544.68 30.36"/></g><g id="Ebene_2" data-name="Ebene 2"><path class="cls-5" d="M459.31,168.49c3.39-3.7,3.83-4.14,6.9-7.7,4.18-4.85,4.85-5.56,4.85-8.46v-.75c0-2.18-.89-2.81-4.14-2.81a37.27,37.27,0,0,0-7,.89l-.76-4.53a29.42,29.42,0,0,1,8.05-1.16c6.86,0,9.26,2.36,9.26,7v1c0,4.09-.36,5-4.49,10.1-2.5,3.07-3.56,4.31-5.3,6.32h9.88v4.76H459.31Z"/><path class="cls-5" d="M500.92,165.64c0,4.45-2.36,8-9.61,8s-9.61-3.51-9.61-8V151.93c0-4.45,2.36-8,9.61-8s9.61,3.51,9.61,8Zm-13.79-.54c0,2.59.75,3.74,4.18,3.74s4.18-1.15,4.18-3.74V152.47c0-2.58-.76-3.74-4.18-3.74s-4.18,1.16-4.18,3.74Z"/><path class="cls-5" d="M505.86,153.4l-2.27-4.27,8.19-4.72h4.89v28.75h-5.43V150.42Z"/><path class="cls-5" d="M534.87,160.74a16.32,16.32,0,0,1-5.29.8c-5.39,0-7.57-2.22-7.57-7.34v-2.13c0-5,2.36-8.1,9.13-8.1,7.65,0,9.16,3.38,9.16,8.5v10.81c0,7.83-4.18,10.32-12.28,10.32a26,26,0,0,1-5.12-.53l.49-4.54a23.59,23.59,0,0,0,4.05.4c5.74,0,7.43-1.33,7.43-5.43Zm0-4.8v-4.05c0-2.45-.93-3.25-3.73-3.25s-3.7,1-3.7,3.25v2.18c0,2.14,1,2.8,3,2.8A11.72,11.72,0,0,0,534.87,155.94Z"/></g></g></svg>