<?xml version="1.0" encoding="utf-8"?>
<!-- Generator: Adobe Illustrator 25.3.1, SVG Export Plug-In . SVG Version: 6.00 Build 0)  -->
<svg version="1.1" id="Ebene_1" xmlns="http://www.w3.org/2000/svg" xmlns:xlink="http://www.w3.org/1999/xlink" x="0px" y="0px"
	 viewBox="0 0 595.28 212.6" style="enable-background:new 0 0 595.28 212.6;" xml:space="preserve">
<style type="text/css">
	.st0{fill:#40464B;}
	.st1{fill:#1A9EDA;}
	.st2{fill:url(#SVGID_1_);}
</style>
<g id="Ebene_1_1_">
</g>
<g id="Ebene_2_1_">
	<polygon class="st0" points="146.49,30.36 129.66,101.91 112.52,30.36 85.01,30.36 67.58,101.91 50.59,30.36 28.35,30.36 
		53,130.47 81.71,130.47 98.69,54.41 115.53,130.47 144.24,130.47 168.74,30.36 	"/>
	<path class="st0" d="M248.44,30.36v70.95c0,15.18-9.47,30.67-37.73,30.67s-37.73-15.48-37.73-30.67V30.36h22.55V99.2
		c0,8.12,3.91,12.78,15.18,12.78s15.18-4.66,15.18-12.78V30.36H248.44z"/>
	<polygon class="st0" points="257.72,30.36 257.72,130.47 320.71,130.47 320.71,110.48 280.27,110.48 280.27,88.68 317.55,88.68 
		317.55,68.69 280.27,68.69 280.27,50.35 320.71,50.35 320.71,30.36 	"/>
	<polygon class="st1" points="426.51,30.36 409.67,101.91 392.54,30.36 365.03,30.36 347.59,101.91 330.61,30.36 308.36,30.36 
		333.01,130.47 361.72,130.47 378.71,54.41 395.54,130.47 424.25,130.47 448.76,30.36 	"/>
	<polygon class="st0" points="74.01,145.57 67.48,173.1 63.42,173.1 55.47,143.72 57.99,143.72 65.36,171.12 71.93,143.72 
		76.08,143.72 82.66,171.12 90.02,143.72 92.54,143.72 84.6,173.1 80.54,173.1 	"/>
	<path class="st0" d="M98.86,151.62V169c0,1.59,0.84,2.16,2.34,2.16c1.76,0,5.56-1.06,8.25-2.47v-17.08h2.56v21.49h-2.25l-0.18-1.94
		c-2.3,1.1-6.13,2.39-8.74,2.39c-3.35,0-4.54-1.9-4.54-4.86v-17.08L98.86,151.62L98.86,151.62z"/>
	<path class="st0" d="M120.06,160.84h10.77v-1.94c0-3.62-1.28-5.52-5.29-5.52c-4.02,0-5.47,1.9-5.47,5.52v1.94H120.06z
		 M125.66,171.3c2.21,0,4.68-0.44,6.8-1.02l0.44,2.07c-1.98,0.71-4.81,1.19-7.41,1.19c-6.05,0-7.99-3.13-7.99-7.81v-6.75
		c0-4.41,1.98-7.81,8.03-7.81s7.81,3.4,7.81,7.81v4.15h-13.28v2.69C120.06,169.66,121.38,171.3,125.66,171.3"/>
	<path class="st0" d="M147.97,153.69c-2.25,0.97-4.72,2.6-6.8,3.97v15.44h-2.56v-21.49h2.29l0.13,3.26c2.29-1.5,4.59-2.96,6.62-3.71
		L147.97,153.69z"/>
	<polygon class="st0" points="151.88,151.62 165.83,151.62 165.78,153.69 154.22,171.03 166.18,171.03 166.18,173.1 151.53,173.1 
		151.53,171.03 163.13,153.69 151.84,153.69 	"/>
	<path class="st0" d="M173.81,170.77c1.68,0.31,3.4,0.44,4.94,0.44c4.63,0,5.73-1.94,5.73-5.16v-8.65c0-2.56-1.15-3.75-3.97-3.75
		c-2.6,0-4.68,0.71-6.71,1.85v15.27H173.81z M187.05,165.96c0,4.81-2.12,7.59-8.6,7.59c-1.85,0-5.21-0.31-7.19-0.79v-29.92
		l2.56-0.35v10.33c1.77-0.93,4.15-1.63,7.06-1.63c4.32,0,6.18,2.47,6.18,6.27L187.05,165.96L187.05,165.96z"/>
	<path class="st0" d="M195.14,151.62V169c0,1.59,0.84,2.16,2.34,2.16c1.76,0,5.56-1.06,8.25-2.47v-17.08h2.56v21.49h-2.25
		l-0.18-1.94c-2.29,1.1-6.13,2.39-8.74,2.39c-3.36,0-4.55-1.9-4.55-4.86v-17.08L195.14,151.62L195.14,151.62z"/>
	<path class="st0" d="M223.8,153.69c-2.25,0.97-4.72,2.6-6.79,3.97v15.44h-2.56v-21.49h2.29l0.13,3.26c2.3-1.5,4.59-2.96,6.62-3.71
		L223.8,153.69z"/>
	<path class="st0" d="M235.47,153.38c-4.28,0-5.78,1.32-5.78,5.25v0.44c0,4.06,1.85,5.25,5.78,5.25s5.78-1.37,5.78-5.25v-0.44
		C241.25,154.75,239.75,153.38,235.47,153.38 M235.47,166.53c-1.1,0-1.99-0.09-2.87-0.27c-1.19,0.97-1.68,1.81-1.68,2.83
		c0,0.84,0.49,1.41,1.94,1.54c2.69,0.22,3.31,0.27,6.18,0.49c3.93,0.31,5.34,2.12,5.34,5.12c0,4.46-2.2,6-9.18,6
		c-1.98,0-5.25-0.4-7.55-1.06l0.4-2.03c2.12,0.48,4.94,0.88,7.24,0.88c5.82,0,6.58-1.19,6.58-3.66c0-2.12-0.88-2.96-3.44-3.13
		c-2.74-0.18-2.96-0.18-5.82-0.4c-3.18-0.27-4.24-1.9-4.24-3.8c0-1.14,0.49-2.47,2.03-3.62c-2.16-1.24-3.18-3.4-3.18-6.44v-0.26
		c0-4.86,2.16-7.55,8.25-7.55c1.46,0,2.6,0.13,3.62,0.44H245v1.85l-2.69,0.22c0.97,1.24,1.41,2.96,1.41,5.03v0.26
		C243.72,163.84,241.12,166.53,235.47,166.53"/>
	<polygon class="st0" points="276.33,145.57 269.79,173.1 265.74,173.1 257.79,143.72 260.31,143.72 267.68,171.12 274.25,143.72 
		278.4,143.72 284.97,171.12 292.34,143.72 294.86,143.72 286.92,173.1 282.86,173.1 	"/>
	<path class="st0" d="M300.01,160.84h10.77v-1.94c0-3.62-1.28-5.52-5.3-5.52s-5.47,1.9-5.47,5.52V160.84z M305.62,171.3
		c2.21,0,4.68-0.44,6.8-1.02l0.44,2.07c-1.99,0.71-4.81,1.19-7.41,1.19c-6.05,0-7.99-3.13-7.99-7.81v-6.75
		c0-4.41,1.98-7.81,8.03-7.81s7.81,3.4,7.81,7.81v4.15h-13.28v2.69C300.01,169.66,301.34,171.3,305.62,171.3"/>
	<path class="st0" d="M321.14,170.77c1.68,0.31,3.4,0.44,4.94,0.44c4.63,0,5.73-1.94,5.73-5.16v-8.65c0-2.56-1.15-3.75-3.97-3.75
		c-2.6,0-4.68,0.71-6.71,1.85L321.14,170.77L321.14,170.77z M334.38,165.96c0,4.81-2.12,7.59-8.6,7.59c-1.85,0-5.21-0.31-7.19-0.79
		v-29.92l2.56-0.35v10.33c1.77-0.93,4.15-1.63,7.06-1.63c4.32,0,6.18,2.47,6.18,6.27L334.38,165.96L334.38,165.96z"/>
	<polygon class="st0" points="366.58,145.57 360.05,173.1 355.99,173.1 348.05,143.72 350.57,143.72 357.93,171.12 364.51,143.72 
		368.66,143.72 375.23,171.12 382.6,143.72 385.12,143.72 377.17,173.1 373.11,173.1 	"/>
	<path class="st0" d="M390.27,160.84h10.77v-1.94c0-3.62-1.28-5.52-5.29-5.52c-4.02,0-5.47,1.9-5.47,5.52L390.27,160.84
		L390.27,160.84z M395.88,171.3c2.21,0,4.68-0.44,6.8-1.02l0.44,2.07c-1.98,0.71-4.81,1.19-7.41,1.19c-6.05,0-7.99-3.13-7.99-7.81
		v-6.75c0-4.41,1.99-7.81,8.03-7.81s7.81,3.4,7.81,7.81v4.15h-13.28v2.69C390.27,169.66,391.59,171.3,395.88,171.3"/>
	<path class="st0" d="M410.87,160.84h10.77v-1.94c0-3.62-1.28-5.52-5.29-5.52c-4.02,0-5.47,1.9-5.47,5.52L410.87,160.84
		L410.87,160.84z M416.48,171.3c2.21,0,4.68-0.44,6.8-1.02l0.44,2.07c-1.98,0.71-4.81,1.19-7.41,1.19c-6.05,0-7.99-3.13-7.99-7.81
		v-6.75c0-4.41,1.99-7.81,8.03-7.81s7.81,3.4,7.81,7.81v4.15h-13.28v2.69C410.87,169.66,412.2,171.3,416.48,171.3"/>
	<path class="st0" d="M444.79,151.62l-8.56,10.59l8.91,10.9h-3.27l-8.74-10.9l8.47-10.59H444.79z M429.44,173.11v-30.27l2.56-0.35
		v30.62L429.44,173.11L429.44,173.11z"/>
	
		<linearGradient id="SVGID_1_" gradientUnits="userSpaceOnUse" x1="418.0685" y1="82.5116" x2="435.9271" y2="183.7926" gradientTransform="matrix(1 0 0 -1 0 211.8898)">
		<stop  offset="0.4365" style="stop-color:#1A9EDA"/>
		<stop  offset="0.5621" style="stop-color:#1375A2"/>
		<stop  offset="0.766" style="stop-color:#09374B"/>
		<stop  offset="0.9099" style="stop-color:#030F15"/>
		<stop  offset="0.9795" style="stop-color:#000000"/>
	</linearGradient>
	<polygon class="st2" points="448.76,30.36 426.51,30.36 409.68,101.91 424.26,130.47 	"/>
	<polygon class="st1" points="544.68,30.36 527.85,101.91 510.71,30.36 483.2,30.36 465.77,101.91 448.78,30.36 426.54,30.36 
		451.18,130.47 479.9,130.47 496.88,54.41 513.72,130.47 542.43,130.47 566.93,30.36 	"/>
</g>
<g>
	<path class="st1" d="M456.97,168c0-6.97,2.02-8.32,9.54-9.03c5.63-0.55,6.34-1.18,6.34-7.39c0-4.87-0.71-6.01-6.47-6.01
		c-5.92,0-6.55,0.84-6.55,5.67v1.47h-2.69v-1.81c0-5.08,0.46-8.28,9.37-8.28c7.02,0,9.28,1.47,9.28,8.91c0,6.64-0.59,9.87-8.7,10.38
		c-6.55,0.42-7.18,1.89-7.18,5.46v3.07h15.67v2.94h-18.61V168z"/>
	<path class="st1" d="M498.98,164.26c0,8.32-2.69,9.45-9.66,9.45c-6.97,0-9.66-1.13-9.66-9.45v-12.18c0-8.32,2.69-9.45,9.66-9.45
		c6.97,0,9.66,1.13,9.66,9.45V164.26z M496.04,151.19c0-5.55-1.39-5.63-6.72-5.63s-6.72,0.08-6.72,5.63v13.95
		c0,5.54,1.39,5.63,6.72,5.63s6.72-0.08,6.72-5.63V151.19z"/>
	<path class="st1" d="M502.84,168c0-6.97,2.02-8.32,9.54-9.03c5.63-0.55,6.34-1.18,6.34-7.39c0-4.87-0.71-6.01-6.47-6.01
		c-5.92,0-6.55,0.84-6.55,5.67v1.47H503v-1.81c0-5.08,0.46-8.28,9.37-8.28c7.02,0,9.28,1.47,9.28,8.91c0,6.64-0.59,9.87-8.7,10.38
		c-6.55,0.42-7.18,1.89-7.18,5.46v3.07h15.67v2.94h-18.61V168z"/>
	<path class="st1" d="M535.26,145.9h-0.08l-6.22,7.94l-1.97-1.81l7.31-9.07h3.91v30.41h-2.94V145.9z"/>
</g>
</svg>
