<?xml version="1.0" encoding="utf-8"?>
<!-- Generator: Adobe Illustrator 21.1.0, SVG Export Plug-In . SVG Version: 6.00 Build 0)  -->
<svg version="1.1" xmlns="http://www.w3.org/2000/svg" xmlns:xlink="http://www.w3.org/1999/xlink" x="0px" y="0px"
	 viewBox="0 0 595.3 212.6" style="enable-background:new 0 0 595.3 212.6;" xml:space="preserve">
<style type="text/css">
	.st0{fill:#40464B;}
	.st1{fill:#1A9EDA;}
	.st2{clip-path:url(#SVGID_3_);fill:url(#SVGID_4_);}
</style>
<g id="Ebene_1">
</g>
<g id="Ebene_2">
	<g>
		<g>
			<polygon class="st0" points="146.5,30.4 129.7,101.9 112.5,30.4 85,30.4 67.6,101.9 50.6,30.4 28.3,30.4 53,130.5 81.7,130.5 
				98.7,54.4 115.5,130.5 144.2,130.5 168.7,30.4 			"/>
			<path class="st0" d="M248.4,30.4v70.9c0,15.2-9.5,30.7-37.7,30.7c-28.3,0-37.7-15.5-37.7-30.7V30.4h22.5v68.8
				c0,8.1,3.9,12.8,15.2,12.8c11.3,0,15.2-4.7,15.2-12.8V30.4H248.4z"/>
			<polygon class="st0" points="257.7,30.4 257.7,130.5 320.7,130.5 320.7,110.5 280.3,110.5 280.3,88.7 317.5,88.7 317.5,68.7 
				280.3,68.7 280.3,50.4 320.7,50.4 320.7,30.4 			"/>
			<polygon class="st1" points="426.5,30.4 409.7,101.9 392.5,30.4 365,30.4 347.6,101.9 330.6,30.4 308.4,30.4 333,130.5 
				361.7,130.5 378.7,54.4 395.5,130.5 424.3,130.5 448.8,30.4 			"/>
			<polygon class="st0" points="74,145.6 67.5,173.1 63.4,173.1 55.5,143.7 58,143.7 65.4,171.1 71.9,143.7 76.1,143.7 82.7,171.1 
				90,143.7 92.5,143.7 84.6,173.1 80.5,173.1 			"/>
			<path class="st0" d="M98.9,151.6V169c0,1.6,0.8,2.2,2.3,2.2c1.8,0,5.6-1.1,8.3-2.5v-17.1h2.6v21.5h-2.2l-0.2-1.9
				c-2.3,1.1-6.1,2.4-8.7,2.4c-3.4,0-4.5-1.9-4.5-4.9v-17.1H98.9z"/>
			<path class="st0" d="M120.1,160.8h10.8v-1.9c0-3.6-1.3-5.5-5.3-5.5c-4,0-5.5,1.9-5.5,5.5V160.8z M125.7,171.3
				c2.2,0,4.7-0.4,6.8-1l0.4,2.1c-2,0.7-4.8,1.2-7.4,1.2c-6,0-8-3.1-8-7.8V159c0-4.4,2-7.8,8-7.8c6,0,7.8,3.4,7.8,7.8v4.1h-13.3v2.7
				C120.1,169.7,121.4,171.3,125.7,171.3"/>
			<path class="st0" d="M148,153.7c-2.2,1-4.7,2.6-6.8,4v15.4h-2.6v-21.5h2.3l0.1,3.3c2.3-1.5,4.6-3,6.6-3.7L148,153.7z"/>
			<polygon class="st0" points="151.9,151.6 165.8,151.6 165.8,153.7 154.2,171 166.2,171 166.2,173.1 151.5,173.1 151.5,171 
				163.1,153.7 151.8,153.7 			"/>
			<path class="st0" d="M173.8,170.8c1.7,0.3,3.4,0.4,4.9,0.4c4.6,0,5.7-1.9,5.7-5.2v-8.6c0-2.6-1.1-3.8-4-3.8
				c-2.6,0-4.7,0.7-6.7,1.9V170.8z M187.1,166c0,4.8-2.1,7.6-8.6,7.6c-1.9,0-5.2-0.3-7.2-0.8v-29.9l2.6-0.4v10.3
				c1.8-0.9,4.1-1.6,7.1-1.6c4.3,0,6.2,2.5,6.2,6.3V166z"/>
			<path class="st0" d="M195.1,151.6V169c0,1.6,0.8,2.2,2.3,2.2c1.8,0,5.6-1.1,8.3-2.5v-17.1h2.6v21.5H206l-0.2-1.9
				c-2.3,1.1-6.1,2.4-8.7,2.4c-3.4,0-4.5-1.9-4.5-4.9v-17.1H195.1z"/>
			<path class="st0" d="M223.8,153.7c-2.2,1-4.7,2.6-6.8,4v15.4h-2.6v-21.5h2.3l0.1,3.3c2.3-1.5,4.6-3,6.6-3.7L223.8,153.7z"/>
			<path class="st0" d="M235.5,153.4c-4.3,0-5.8,1.3-5.8,5.2v0.4c0,4.1,1.9,5.3,5.8,5.3c3.9,0,5.8-1.4,5.8-5.3v-0.4
				C241.3,154.7,239.8,153.4,235.5,153.4 M235.5,166.5c-1.1,0-2-0.1-2.9-0.3c-1.2,1-1.7,1.8-1.7,2.8c0,0.8,0.5,1.4,1.9,1.5
				c2.7,0.2,3.3,0.3,6.2,0.5c3.9,0.3,5.3,2.1,5.3,5.1c0,4.5-2.2,6-9.2,6c-2,0-5.3-0.4-7.5-1.1l0.4-2c2.1,0.5,4.9,0.9,7.2,0.9
				c5.8,0,6.6-1.2,6.6-3.7c0-2.1-0.9-3-3.4-3.1c-2.7-0.2-3-0.2-5.8-0.4c-3.2-0.3-4.2-1.9-4.2-3.8c0-1.1,0.5-2.5,2-3.6
				c-2.2-1.2-3.2-3.4-3.2-6.4v-0.3c0-4.9,2.2-7.5,8.3-7.5c1.5,0,2.6,0.1,3.6,0.4h5.9v1.9l-2.7,0.2c1,1.2,1.4,3,1.4,5v0.3
				C243.7,163.8,241.1,166.5,235.5,166.5"/>
			<polygon class="st0" points="276.3,145.6 269.8,173.1 265.7,173.1 257.8,143.7 260.3,143.7 267.7,171.1 274.3,143.7 278.4,143.7 
				285,171.1 292.3,143.7 294.9,143.7 286.9,173.1 282.9,173.1 			"/>
			<path class="st0" d="M300,160.8h10.8v-1.9c0-3.6-1.3-5.5-5.3-5.5c-4,0-5.5,1.9-5.5,5.5V160.8z M305.6,171.3c2.2,0,4.7-0.4,6.8-1
				l0.4,2.1c-2,0.7-4.8,1.2-7.4,1.2c-6,0-8-3.1-8-7.8V159c0-4.4,2-7.8,8-7.8c6,0,7.8,3.4,7.8,7.8v4.1H300v2.7
				C300,169.7,301.3,171.3,305.6,171.3"/>
			<path class="st0" d="M321.1,170.8c1.7,0.3,3.4,0.4,4.9,0.4c4.6,0,5.7-1.9,5.7-5.2v-8.6c0-2.6-1.1-3.8-4-3.8
				c-2.6,0-4.7,0.7-6.7,1.9V170.8z M334.4,166c0,4.8-2.1,7.6-8.6,7.6c-1.9,0-5.2-0.3-7.2-0.8v-29.9l2.6-0.4v10.3
				c1.8-0.9,4.1-1.6,7.1-1.6c4.3,0,6.2,2.5,6.2,6.3V166z"/>
			<polygon class="st0" points="366.6,145.6 360.1,173.1 356,173.1 348,143.7 350.6,143.7 357.9,171.1 364.5,143.7 368.7,143.7 
				375.2,171.1 382.6,143.7 385.1,143.7 377.2,173.1 373.1,173.1 			"/>
			<path class="st0" d="M390.3,160.8H401v-1.9c0-3.6-1.3-5.5-5.3-5.5c-4,0-5.5,1.9-5.5,5.5V160.8z M395.9,171.3c2.2,0,4.7-0.4,6.8-1
				l0.4,2.1c-2,0.7-4.8,1.2-7.4,1.2c-6,0-8-3.1-8-7.8V159c0-4.4,2-7.8,8-7.8s7.8,3.4,7.8,7.8v4.1h-13.3v2.7
				C390.3,169.7,391.6,171.3,395.9,171.3"/>
			<path class="st0" d="M410.9,160.8h10.8v-1.9c0-3.6-1.3-5.5-5.3-5.5c-4,0-5.5,1.9-5.5,5.5V160.8z M416.5,171.3
				c2.2,0,4.7-0.4,6.8-1l0.4,2.1c-2,0.7-4.8,1.2-7.4,1.2c-6,0-8-3.1-8-7.8V159c0-4.4,2-7.8,8-7.8s7.8,3.4,7.8,7.8v4.1h-13.3v2.7
				C410.9,169.7,412.2,171.3,416.5,171.3"/>
			<path class="st0" d="M444.8,151.6l-8.6,10.6l8.9,10.9h-3.3l-8.7-10.9l8.5-10.6H444.8z M429.4,173.1v-30.3l2.6-0.4v30.6H429.4z"/>
			<g>
				<defs>
					<polygon id="SVGID_1_" points="448.8,30.4 426.5,30.4 409.7,101.9 424.3,130.5 					"/>
				</defs>
				<linearGradient id="SVGID_2_" gradientUnits="userSpaceOnUse" x1="409.6751" y1="80.4143" x2="448.7567" y2="80.4143">
					<stop  offset="0.3515" style="stop-color:#FFFFFF"/>
					<stop  offset="1" style="stop-color:#000000"/>
				</linearGradient>
				<use xlink:href="#SVGID_1_"  style="overflow:visible;fill:url(#SVGID_2_);"/>
				<clipPath id="SVGID_3_">
					<use xlink:href="#SVGID_1_"  style="overflow:visible;"/>
				</clipPath>
				
					<linearGradient id="SVGID_4_" gradientUnits="userSpaceOnUse" x1="327.0345" y1="831.8844" x2="328.7052" y2="831.8844" gradientTransform="matrix(10.9522 -62.1131 -62.1131 -10.9522 48509.2031 29556.3848)">
					<stop  offset="0.4158" style="stop-color:#FFFFFF"/>
					<stop  offset="1" style="stop-color:#000000"/>
				</linearGradient>
				<polygon class="st2" points="392.6,127.4 410.9,23.7 465.9,33.4 447.6,137.2 				"/>
			</g>
			<polygon class="st1" points="544.7,30.4 527.8,101.9 510.7,30.4 483.2,30.4 465.8,101.9 448.8,30.4 426.5,30.4 451.2,130.5 
				479.9,130.5 496.9,54.4 513.7,130.5 542.4,130.5 566.9,30.4 			"/>
		</g>
		<g>
			<path class="st1" d="M456.1,168.3c0-7,2-8.3,9.5-9c5.6-0.5,6.3-1.2,6.3-7.4c0-4.9-0.7-6-6.5-6c-5.9,0-6.6,0.8-6.6,5.7v1.5h-2.7
				v-1.8c0-5.1,0.5-8.3,9.4-8.3c7,0,9.3,1.5,9.3,8.9c0,6.6-0.6,9.9-8.7,10.4c-6.6,0.4-7.2,1.9-7.2,5.5v3.1h15.7v2.9h-18.6V168.3z"/>
			<path class="st1" d="M498.1,164.6c0,8.3-2.7,9.5-9.7,9.5s-9.7-1.1-9.7-9.5v-12.2c0-8.3,2.7-9.5,9.7-9.5s9.7,1.1,9.7,9.5V164.6z
				 M495.2,151.5c0-5.5-1.4-5.6-6.7-5.6s-6.7,0.1-6.7,5.6v13.9c0,5.5,1.4,5.6,6.7,5.6s6.7-0.1,6.7-5.6V151.5z"/>
			<path class="st1" d="M502,168.3c0-7,2-8.3,9.5-9c5.6-0.5,6.3-1.2,6.3-7.4c0-4.9-0.7-6-6.5-6c-5.9,0-6.6,0.8-6.6,5.7v1.5h-2.7
				v-1.8c0-5.1,0.5-8.3,9.4-8.3c7,0,9.3,1.5,9.3,8.9c0,6.6-0.6,9.9-8.7,10.4c-6.6,0.4-7.2,1.9-7.2,5.5v3.1h15.7v2.9H502V168.3z"/>
			<path class="st1" d="M544,164.6c0,8.3-2.7,9.5-9.7,9.5s-9.7-1.1-9.7-9.5v-12.2c0-8.3,2.7-9.5,9.7-9.5s9.7,1.1,9.7,9.5V164.6z
				 M541,151.5c0-5.5-1.4-5.6-6.7-5.6s-6.7,0.1-6.7,5.6v13.9c0,5.5,1.4,5.6,6.7,5.6s6.7-0.1,6.7-5.6V151.5z"/>
		</g>
	</g>
</g>
</svg>
