<?xml version="1.0" encoding="UTF-8"?><svg id="Ebene_1" xmlns="http://www.w3.org/2000/svg" xmlns:xlink="http://www.w3.org/1999/xlink" viewBox="0 0 787.8 231.5"><defs><style>.cls-1,.cls-2{fill:none;}.cls-3{fill:#7fe619;}.cls-4{fill:#40464b;}.cls-5{fill:url(#Unbenannter_Verlauf_2);}.cls-6{fill:url(#Unbenannter_Verlauf);}.cls-2{clip-path:url(#clippath);}</style><linearGradient id="Unbenannter_Verlauf" x1="557.8" y1="292.6" x2="614.96" y2="292.6" gradientTransform="translate(0 375.6) scale(1 -1)" gradientUnits="userSpaceOnUse"><stop offset=".35" stop-color="#fff"/><stop offset="1" stop-color="#000"/></linearGradient><clipPath id="clippath"><polygon class="cls-1" points="614.9 9.8 582.4 9.8 557.8 114.4 579.1 156.2 614.9 9.8"/></clipPath><linearGradient id="Unbenannter_Verlauf_2" x1="-436.57" y1="20.49" x2="-434.13" y2="20.49" gradientTransform="translate(4081.71 -27182.4) rotate(-80) scale(63.07)" gradientUnits="userSpaceOnUse"><stop offset=".42" stop-color="#7fe619"/><stop offset="1" stop-color="#000"/></linearGradient></defs><polygon class="cls-4" points="172.8 9.8 148.2 114.5 123.1 9.8 82.9 9.8 57.4 114.5 32.5 9.8 0 9.8 36 156.2 78 156.2 102.9 45 127.5 156.2 169.5 156.2 205.3 9.8 172.8 9.8"/><path class="cls-4" d="m321.9,9.8v103.8c0,22.2-13.9,44.9-55.2,44.9s-55.2-22.7-55.2-44.9V9.8h33v100.7c0,11.9,5.7,18.7,22.2,18.7s22.2-6.8,22.2-18.7V9.8h33Z"/><polygon class="cls-4" points="335.5 9.8 335.5 156.2 427.6 156.2 427.6 127 368.5 127 368.5 95.1 423 95.1 423 65.9 368.5 65.9 368.5 39 427.6 39 427.6 9.8 335.5 9.8"/><polygon class="cls-3" points="582.4 9.8 557.7 114.5 532.7 9.8 492.5 9.8 466.9 114.5 442.1 9.8 409.6 9.8 445.6 156.2 487.6 156.2 512.5 45 537.1 156.2 579.1 156.2 614.9 9.8 582.4 9.8"/><polygon id="SVGID" class="cls-6" points="614.9 9.8 582.4 9.8 557.8 114.4 579.1 156.2 614.9 9.8"/><g class="cls-2"><polygon class="cls-5" points="532.7 151.8 559.5 0 640 14.2 613.2 166 532.7 151.8"/></g><polygon class="cls-3" points="755.2 9.8 730.6 114.5 705.5 9.8 665.3 9.8 639.8 114.5 615 9.8 582.4 9.8 618.5 156.2 660.5 156.2 685.3 45 709.9 156.2 751.9 156.2 787.8 9.8 755.2 9.8"/><path class="cls-4" d="m66.9,178.3l-9.5,40h-5.9l-11.5-42.7h3.7l10.7,39.8,9.6-39.8h6l9.6,39.8,10.7-39.8h3.7l-11.5,42.7h-5.9l-9.7-40Z"/><path class="cls-4" d="m102.9,187.1v25.3c0,2.3,1.2,3.1,3.4,3.1,2.6,0,8.1-1.5,12-3.6v-24.8h3.7v31.2h-3.3l-.3-2.8c-3.3,1.6-8.9,3.5-12.7,3.5-4.9,0-6.6-2.8-6.6-7.1v-24.8h3.8Z"/><path class="cls-4" d="m141.9,215.7c3.2,0,6.8-.6,9.9-1.5l.6,3c-2.9,1-7,1.7-10.8,1.7-8.8,0-11.6-4.6-11.6-11.4v-9.7c0-6.4,2.9-11.4,11.7-11.4s11.4,4.9,11.4,11.4v6h-19.3v3.9c-.1,5.6,1.9,8,8.1,8Zm-8.2-15.2h15.6v-2.8c0-5.3-1.9-8-7.7-8s-8,2.8-8,8v2.8h.1Z"/><path class="cls-4" d="m174.3,190.1c-3.3,1.4-6.9,3.8-9.9,5.8v22.4h-3.7v-31.2h3.3l.2,4.7c3.3-2.2,6.7-4.3,9.6-5.4l.5,3.7Z"/><path class="cls-4" d="m180,187.1h20.3l-.1,3-16.8,25.2h17.4v3h-21.3v-3l16.9-25.2h-16.4v-3Z"/><path class="cls-4" d="m231.1,208c0,7-3.1,11-12.5,11-2.7,0-7.6-.4-10.5-1.2v-43.5l3.7-.5v15c2.6-1.3,6-2.4,10.3-2.4,6.3,0,9,3.6,9,9.1v12.5Zm-19.2,6.9c2.4.4,4.9.6,7.2.6,6.7,0,8.3-2.8,8.3-7.5v-12.6c0-3.7-1.7-5.5-5.8-5.5-3.8,0-6.8,1-9.7,2.7v22.3Z"/><path class="cls-4" d="m242.9,187.1v25.3c0,2.3,1.2,3.1,3.4,3.1,2.6,0,8.1-1.5,12-3.6v-24.8h3.7v31.2h-3.3l-.3-2.8c-3.3,1.6-8.9,3.5-12.7,3.5-4.9,0-6.6-2.8-6.6-7.1v-24.8h3.8Z"/><path class="cls-4" d="m284.5,190.1c-3.3,1.4-6.9,3.8-9.9,5.8v22.4h-3.7v-31.2h3.3l.2,4.7c3.3-2.2,6.7-4.3,9.6-5.4l.5,3.7Z"/><path class="cls-4" d="m301.5,208.8c-1.6,0-2.9-.1-4.2-.4-1.7,1.4-2.4,2.6-2.4,4.1,0,1.2.7,2.1,2.8,2.2,3.9.3,4.8.4,9,.7,5.7.4,7.8,3.1,7.8,7.4,0,6.5-3.2,8.7-13.3,8.7-2.9,0-7.6-.6-11-1.5l.6-3c3.1.7,7.2,1.3,10.5,1.3,8.5,0,9.6-1.7,9.6-5.3,0-3.1-1.3-4.3-5-4.6-4-.3-4.3-.3-8.5-.6-4.6-.4-6.2-2.8-6.2-5.5,0-1.7.7-3.6,3-5.3-3.1-1.8-4.6-4.9-4.6-9.4v-.4c0-7.1,3.1-11,12-11,2.1,0,3.8.2,5.3.6h8.6v2.7l-3.9.3c1.4,1.8,2.1,4.3,2.1,7.3v.4c-.2,7.4-4,11.3-12.2,11.3Zm0-19.1c-6.2,0-8.4,1.9-8.4,7.6v.6c0,5.9,2.7,7.6,8.4,7.6s8.4-2,8.4-7.6v-.6c0-5.6-2.2-7.6-8.4-7.6Z"/><path class="cls-4" d="m361.8,178.3l-9.5,40h-5.9l-11.5-42.7h3.7l10.7,39.8,9.6-39.8h6l9.6,39.8,10.7-39.8h3.7l-11.5,42.7h-5.9l-9.7-40Z"/><path class="cls-4" d="m404.3,215.7c3.2,0,6.8-.6,9.9-1.5l.6,3c-2.9,1-7,1.7-10.8,1.7-8.8,0-11.6-4.6-11.6-11.4v-9.7c0-6.4,2.9-11.4,11.7-11.4s11.4,4.9,11.4,11.4v6h-19.3v3.9c-.1,5.6,1.9,8,8.1,8Zm-8.2-15.2h15.6v-2.8c0-5.3-1.9-8-7.7-8s-8,2.8-8,8v2.8h.1Z"/><path class="cls-4" d="m446.1,208c0,7-3.1,11-12.5,11-2.7,0-7.6-.4-10.5-1.2v-43.5l3.7-.5v15c2.6-1.3,6-2.4,10.3-2.4,6.3,0,9,3.6,9,9.1v12.5Zm-19.3,6.9c2.4.4,4.9.6,7.2.6,6.7,0,8.3-2.8,8.3-7.5v-12.6c0-3.7-1.7-5.5-5.8-5.5-3.8,0-6.8,1-9.7,2.7v22.3Z"/><path class="cls-4" d="m493.8,178.3l-9.5,40h-5.9l-11.5-42.7h3.7l10.7,39.8,9.6-39.8h6l9.6,39.8,10.7-39.8h3.7l-11.5,42.7h-5.9l-9.7-40Z"/><path class="cls-4" d="m536.3,215.7c3.2,0,6.8-.6,9.9-1.5l.6,3c-2.9,1-7,1.7-10.8,1.7-8.8,0-11.6-4.6-11.6-11.4v-9.7c0-6.4,2.9-11.4,11.7-11.4s11.4,4.9,11.4,11.4v6h-19.3v3.9c-.1,5.6,1.9,8,8.1,8Zm-8.2-15.2h15.6v-2.8c0-5.3-1.9-8-7.7-8s-8,2.8-8,8v2.8h.1Z"/><path class="cls-4" d="m566.2,215.7c3.2,0,6.8-.6,9.9-1.5l.6,3c-2.9,1-7,1.7-10.8,1.7-8.8,0-11.6-4.6-11.6-11.4v-9.7c0-6.4,2.9-11.4,11.7-11.4s11.4,4.9,11.4,11.4v6h-19.3v3.9c0,5.6,1.9,8,8.1,8Zm-8.1-15.2h15.6v-2.8c0-5.3-1.9-8-7.7-8s-8,2.8-8,8v2.8h.1Z"/><path class="cls-4" d="m585,218.3v-44l3.7-.5v44.5h-3.7Zm22.4-31.2l-12.4,15.4,13,15.8h-4.7l-12.7-15.8,12.3-15.4h4.5Z"/><path class="cls-4" d="m628.2,215c5.5-6.9,7.1-8.6,11.7-14.7,5-6.5,7.1-9.2,7.1-12.9v-1c0-4.9-1-6.8-8.7-6.8-3,0-6.8.8-9,1.5l-.7-3.2c2.2-.8,6.4-1.6,10.1-1.6,9.9,0,12,3.7,12,10v1c0,4.6-1.7,7.1-7.8,15.2-4,5.4-5.6,7.1-9.9,12.6h18.1v3.3h-22.8v-3.4h-.1Z"/><path class="cls-4" d="m685.3,208c0,6.4-3.4,11-12.8,11s-12.8-4.6-12.8-11v-20.8c0-6.4,3.4-11,12.8-11s12.8,4.6,12.8,11v20.8Zm-21.9-.2c0,5.3,2.1,7.9,9.1,7.9s9.1-2.6,9.1-7.9v-20.3c0-5.3-2.1-7.9-9.1-7.9s-9.1,2.6-9.1,7.9v20.3Z"/><path class="cls-4" d="m692.8,215c5.5-6.9,7.1-8.6,11.7-14.7,5-6.5,7.1-9.2,7.1-12.9v-1c0-4.9-1-6.8-8.7-6.8-3,0-6.8.8-9,1.5l-.7-3.2c2.2-.8,6.4-1.6,10.1-1.6,9.9,0,12,3.7,12,10v1c0,4.6-1.7,7.1-7.8,15.2-4,5.4-5.6,7.1-9.9,12.6h18.1v3.3h-22.8v-3.4h-.1Z"/><path class="cls-4" d="m724.3,214.5c3,.7,6.3,1.2,9.2,1.2,6.5,0,9.3-1.3,9.3-6.3v-4.1c0-4.1-2.6-6-7.2-6h-8.6v-3.5h8.2c4.7,0,6.9-2.2,6.9-5.8v-4.6c0-4.3-2.1-5.8-7.7-5.8-2.9,0-6.6.4-9.3,1l-.5-3.2c2.6-.6,6.5-1.1,9.7-1.1,8.3,0,11.5,3.1,11.5,8.9v4.5c0,4-1.2,6.2-5.1,7.8,3.5.8,5.9,3.1,5.9,7.5v4.6c0,6.8-4.4,9.4-13.1,9.4-2.7,0-6.5-.4-9.7-1.3l.5-3.2Z"/></svg>